arm26_states
version=1
nRows=24
nColumns=17
inDegrees=yes

# SIMM Motion File Header:
name arm26_states
datacolumns 17
datarows 24
otherdata 1
range 0.54497360 0.61329390
endheader
time	r_shoulder_elev	r_elbow_flex	r_shoulder_elev_u	r_elbow_flex_u	TRIlong.activation	TRIlong.fiber_length	TRIlat.activation	TRIlat.fiber_length	TRImed.activation	TRImed.fiber_length	BIClong.activation	BIClong.fiber_length	BICshort.activation	BICshort.fiber_length	BRA.activation	BRA.fiber_length
      0.54497360	    -10.46799608	     77.06591356	     -8.64777276	     46.09944917	      0.00000925	      0.15903859	      0.03553159	      0.09952753	      0.03397989	      0.09455045	      0.14793402	      0.11212543	      0.01707204	      0.11061974	      0.00063899	      0.07368384
      0.54769201	    -10.49210269	     77.19077613	     -9.08816473	     45.76423849	      0.00000920	      0.15907019	      0.03592014	      0.09956578	      0.03435772	      0.09458885	      0.14835847	      0.11202698	      0.01686674	      0.11053152	      0.00061779	      0.07363945
      0.55041042	    -10.51740368	     77.31473552	     -9.52598400	     45.43664227	      0.00000914	      0.15909314	      0.03631402	      0.09960369	      0.03474084	      0.09462692	      0.14878508	      0.11192960	      0.01665922	      0.11044440	      0.00059738	      0.07359530
      0.55378473	    -10.55046260	     77.46736648	    -10.06861659	     45.02843589	      0.00000908	      0.15912694	      0.03680432	      0.09965031	      0.03521794	      0.09467374	      0.14932256	      0.11181021	      0.01639370	      0.11033784	      0.00057193	      0.07354088
      0.55678911	    -10.58143422	     77.60211124	    -10.54812014	     44.67276491	      0.00000902	      0.15914810	      0.03723997	      0.09969146	      0.03564204	      0.09471507	      0.14980916	      0.11170527	      0.01614803	      0.11024449	      0.00054861	      0.07349277
      0.55979349	    -10.61384406	     77.73578727	    -11.02712070	     44.31292689	      0.00000896	      0.15917805	      0.03767586	      0.09973228	      0.03606647	      0.09475607	      0.15030127	      0.11160160	      0.01589443	      0.11015262	      0.00052483	      0.07344500
      0.56279788	    -10.64768799	     77.86839064	    -11.50148779	     43.96322220	      0.00000890	      0.15919573	      0.03811930	      0.09977276	      0.03649845	      0.09479672	      0.15079742	      0.11149921	      0.01563481	      0.11006222	      0.00050153	      0.07339756
      0.56580226	    -10.68295417	     77.99994227	    -11.97524661	     43.60769287	      0.00000884	      0.15922454	      0.03856909	      0.09981287	      0.03693675	      0.09483701	      0.15129657	      0.11139808	      0.01536974	      0.10997328	      0.00047879	      0.07335043
      0.56880664	    -10.71963744	     78.13043458	    -12.44321450	     43.26363679	      0.00000878	      0.15923843	      0.03902484	      0.09985261	      0.03738098	      0.09487693	      0.15179838	      0.11129821	      0.01509937	      0.10988579	      0.00045667	      0.07330361
      0.57150951	    -10.75383799	     78.24694458	    -12.86349988	     42.94730185	      0.00000873	      0.15926240	      0.03944135	      0.09988805	      0.03778708	      0.09491252	      0.15225248	      0.11120945	      0.01485141	      0.10980830	      0.00043750	      0.07326176
      0.57421238	    -10.78916875	     78.36260696	    -13.27888275	     42.63849751	      0.00000868	      0.15927611	      0.03986266	      0.09992319	      0.03819796	      0.09494781	      0.15270854	      0.11112170	      0.01459923	      0.10973198	      0.00041901	      0.07322016
      0.57691525	    -10.82561856	     78.47743289	    -13.69183857	     42.32714611	      0.00000863	      0.15929413	      0.04028863	      0.09995803	      0.03861345	      0.09498281	      0.15316624	      0.11103497	      0.01434300	      0.10965682	      0.00040118	      0.07317881
      0.58062041	    -10.87738802	     78.63347586	    -14.25079192	     41.90555187	      0.00000856	      0.15931129	      0.04088214	      0.10000530	      0.03919253	      0.09503030	      0.15379623	      0.11091773	      0.01398521	      0.10955566	      0.00037791	      0.07312252
      0.58339250	    -10.91746777	     78.74920032	    -14.66545365	     41.58575012	      0.00000851	      0.15933022	      0.04133167	      0.10004031	      0.03963122	      0.09506547	      0.15426902	      0.11083127	      0.01371293	      0.10948139	      0.00036133	      0.07308072
      0.58616459	    -10.95868964	     78.86404283	    -15.07416988	     41.27132392	      0.00000845	      0.15934042	      0.04178648	      0.10007502	      0.04007515	      0.09510034	      0.15474276	      0.11074586	      0.01343676	      0.10940834	      0.00034547	      0.07303918
      0.58893668	    -11.00103883	     78.97801071	    -15.47914098	     40.95326174	      0.00000840	      0.15935490	      0.04224684	      0.10010941	      0.04052459	      0.09513490	      0.15521722	      0.11066152	      0.01315675	      0.10933650	      0.00033031	      0.07299790
      0.59257642	    -11.05833448	     79.12631240	    -16.00196660	     40.53956607	      0.00000833	      0.15936576	      0.04285781	      0.10015412	      0.04112119	      0.09517982	      0.15584094	      0.11055240	      0.01278367	      0.10924401	      0.00031143	      0.07294411
      0.59527768	    -11.10207876	     79.23539909	    -16.38558203	     40.22655582	      0.00000828	      0.15938061	      0.04331733	      0.10018695	      0.04156998	      0.09521282	      0.15630357	      0.11047259	      0.01250304	      0.10917671	      0.00029819	      0.07290448
      0.59797894	    -11.14685090	     79.34364376	    -16.76245732	     39.91784944	      0.00000823	      0.15938691	      0.04378177	      0.10021950	      0.04202364	      0.09524553	      0.15676577	      0.11039380	      0.01221942	      0.10911056	      0.00028561	      0.07286511
      0.60132908	    -11.20378117	     79.47672633	    -17.22347718	     39.52894928	      0.00000817	      0.15940022	      0.04437237	      0.10025947	      0.04260053	      0.09528570	      0.15733320	      0.11029748	      0.01186926	      0.10903012	      0.00027138	      0.07281664
      0.60432028	    -11.25590481	     79.59444827	    -17.62592626	     39.18434829	      0.00000812	      0.15940336	      0.04498813	      0.10029453	      0.04320131	      0.09532095	      0.15779195	      0.11021286	      0.01160818	      0.10895926	      0.00026474	      0.07277365
      0.60731149	    -11.30922094	     79.71112739	    -18.02171819	     38.82686683	      0.00000806	      0.15941541	      0.04568105	      0.10032875	      0.04387684	      0.09535536	      0.15820861	      0.11012966	      0.01140315	      0.10888857	      0.00026587	      0.07273091
      0.61030269	    -11.36370505	     79.82672680	    -18.40536773	     38.46629196	      0.00000800	      0.15941541	      0.04640078	      0.10036215	      0.04457835	      0.09538898	      0.15861085	      0.11004790	      0.01123079	      0.10881780	      0.00027761	      0.07268834
      0.61329390	    -11.41932208	     79.94122429	    -18.78061706	     38.08515017	      0.00000795	      0.15942659	      0.04704539	      0.10039516	      0.04520718	      0.09542224	      0.15905476	      0.10996748	      0.01102474	      0.10874763	      0.00027652	      0.07264614
